# xmcd
# 
# Track frame offsets:
#     150
#     18657
#     34492
#     51675
#     68097
#     81467
#     100085
#     115990
#     131075
#     150860
#     164000
#     178237
#     194957
#     207187
#     224800
#     242485
# 
# Disc length: 3463
# 
# Revision: 3
# Processed by: cddbd v1.5.2PL0 Copyright (c) Steve Scherf et al.
# Submitted via: fre:ac v1.0.17
# 
DISCID=fd0d8510
DTITLE=Audrey Landers - Weites Land
DYEAR=1986
DGENRE=Country
TTITLE0=Banks Of The Ohio
TTITLE1=Blue Bayou
TTITLE2=Tennessee Nights (Mama Chiquita)
TTITLE3=Rose Garden
TTITLE4=Yellow Rose Of Texas
TTITLE5=Yesterday's Love
TTITLE6=Some Broken Hearts Never Mend
TTITLE7=Let Your Love Flow
TTITLE8=To All The Survivors
TTITLE9=Squeeze Box
TTITLE10=These Silver Wings (La Golondrina)
TTITLE11=A Woman In Me
TTITLE12=Tennessee Waltz
TTITLE13=Hey Sam
TTITLE14=Lucky
TTITLE15=Happy Endings
EXTD=
EXTT0=
EXTT1=
EXTT2=
EXTT3=
EXTT4=
EXTT5=
EXTT6=
EXTT7=
EXTT8=
EXTT9=
EXTT10=
EXTT11=
EXTT12=
EXTT13=
EXTT14=
EXTT15=
PLAYORDER=
